<?xml version="1.0" encoding="utf-8"?>
<!-- Generator: Adobe Illustrator 23.0.3, SVG Export Plug-In . SVG Version: 6.00 Build 0)  -->
<svg version="1.1" id="Layer_1" xmlns="http://www.w3.org/2000/svg" xmlns:xlink="http://www.w3.org/1999/xlink" x="0px" y="0px"
	 viewBox="0 0 80 80" style="enable-background:new 0 0 80 80;" xml:space="preserve">
<style type="text/css">
	.st0{fill:#F75000;}
	.st1{fill:#FFFFFF;}
</style>
<path class="st0" d="M40,2.7c20.6,0,37.3,16.7,37.3,37.3S60.6,77.3,40,77.3S2.7,60.6,2.7,40S19.4,2.7,40,2.7L40,2.7z"/>
<g>
	<path class="st1" d="M45.2,58.1c-4.7,3.2-9.1,7-15.3,7c-4.2,0-6.8-2-6.5-6c0.8-11.3,6.3-21.1,10.4-31.3c0.1-0.4,1.2-0.3,1.9-0.5
		c1.6-0.7,2.5,0.9,3.8,1.3c1.5,0.7,3.3,0.5,4.5,1.9c0.8,4.6-2.1,8.3-3.1,12.4c-0.8,3.3-2.1,6.6-3.6,11c5.5-2.9,8.6-6.6,11.9-10
		c1.2-2.8,3.3-2.4,5.5-1.7c2,1.1,2.1,2.8,1.6,4.7c-2,3.5-4.5,6.7-7.4,9.5C47.8,57.1,47.4,56.4,45.2,58.1z"/>
	<path class="st1" d="M39.1,26.8c-0.9-0.2-1.3-1-1.9-1.6c-0.7-0.7-1.2-1.5-1.5-2.5c-2.1-5.9,0.1-10.7,5.6-11.3
		c3.8-0.4,6.7,1,8.3,4.5c1.7,3.6,0.4,6.9-3.7,10.1c-0.9,0.7-2.1,1.3-3.3,1.4c-0.8,0.1-1.5,0-2.3-0.3C40,27,39.5,26.9,39.1,26.8z"/>
</g>
</svg>
